<svg width="19" height="19" viewBox="0 0 19 19" fill="none" xmlns="http://www.w3.org/2000/svg">
<path d="M16.677 0.294922C17.2074 0.294922 17.7161 0.505635 18.0912 0.880708C18.4663 1.25578 18.677 1.76449 18.677 2.29492V16.2949C18.677 16.8254 18.4663 17.3341 18.0912 17.7091C17.7161 18.0842 17.2074 18.2949 16.677 18.2949H2.677C2.14657 18.2949 1.63786 18.0842 1.26279 17.7091C0.887716 17.3341 0.677002 16.8254 0.677002 16.2949V2.29492C0.677002 1.76449 0.887716 1.25578 1.26279 0.880708C1.63786 0.505635 2.14657 0.294922 2.677 0.294922H16.677ZM16.177 15.7949V10.4949C16.177 9.63032 15.8335 8.80112 15.2222 8.18975C14.6108 7.57838 13.7816 7.23492 12.917 7.23492C12.067 7.23492 11.077 7.75492 10.597 8.53492V7.42492H7.807V15.7949H10.597V10.8649C10.597 10.0949 11.217 9.46492 11.987 9.46492C12.3583 9.46492 12.7144 9.61242 12.977 9.87497C13.2395 10.1375 13.387 10.4936 13.387 10.8649V15.7949H16.177ZM4.557 5.85492C5.00257 5.85492 5.42988 5.67792 5.74494 5.36286C6.06 5.0478 6.237 4.62049 6.237 4.17492C6.237 3.24492 5.487 2.48492 4.557 2.48492C4.10879 2.48492 3.67893 2.66297 3.36199 2.97991C3.04505 3.29685 2.867 3.72671 2.867 4.17492C2.867 5.10492 3.627 5.85492 4.557 5.85492ZM5.947 15.7949V7.42492H3.177V15.7949H5.947Z" fill="white"/>
</svg>
